<?xml version="1.0" standalone="no"?>
<!DOCTYPE svg PUBLIC "-//W3C//DTD SVG 20010904//EN"
 "http://www.w3.org/TR/2001/REC-SVG-20010904/DTD/svg10.dtd">
<svg version="1.0" xmlns="http://www.w3.org/2000/svg"
 width="256.000000pt" height="256.000000pt" viewBox="0 0 256.000000 256.000000"
 preserveAspectRatio="xMidYMid meet">
<metadata>
Created by potrace 1.14, written by Peter Selinger 2001-2017
</metadata>
<g transform="translate(0.000000,256.000000) scale(0.100000,-0.100000)"
fill="#000000" stroke="none">
<path d="M990 2519 c-646 -62 -850 -332 -851 -1124 -1 -494 66 -752 238 -918
165 -160 383 -222 813 -234 691 -19 1016 118 1150 484 60 165 81 340 81 663 0
358 -31 550 -118 730 -87 181 -240 297 -464 354 -52 13 -134 29 -184 36 -116
15 -542 21 -665 9z m154 -582 c11 -8 20 -31 23 -59 5 -40 2 -50 -20 -72 -14
-14 -35 -26 -47 -26 -20 0 -20 -5 -20 -220 0 -121 3 -220 8 -220 4 0 103 99
220 219 211 218 212 219 182 226 -37 8 -50 31 -50 84 0 28 7 48 20 61 19 19
33 20 223 20 239 0 240 -1 235 -89 l-3 -50 -523 -530 c-552 -560 -546 -555
-616 -537 -58 14 -56 -7 -56 537 0 471 -1 499 -18 499 -10 0 -28 7 -40 16 -18
12 -22 25 -22 66 0 89 -3 88 260 88 171 0 231 -3 244 -13z"/>
</g>
</svg>
